<?xml version="1.0" standalone="no"?>
<!DOCTYPE svg PUBLIC "-//W3C//DTD SVG 20010904//EN"
 "http://www.w3.org/TR/2001/REC-SVG-20010904/DTD/svg10.dtd">
<svg version="1.0" xmlns="http://www.w3.org/2000/svg"
 width="600.000000pt" height="400.000000pt" viewBox="0 0 600.000000 400.000000"
 preserveAspectRatio="xMidYMid meet">
<g transform="translate(0.000000,400.000000) scale(0.100000,-0.100000)"
fill="#000000" stroke="none">
<path d="M1187 2549 l-67 -52 0 -249 0 -248 55 36 c31 21 61 34 70 31 13 -6
15 25 14 263 0 149 -1 270 -3 270 -1 0 -32 -23 -69 -51z m38 -64 c2 -26 0 -58
-6 -71 -6 -17 -6 -23 1 -19 6 4 10 -37 10 -115 0 -86 -3 -119 -11 -114 -8 5
-8 1 0 -14 17 -32 13 -47 -20 -71 -18 -13 -29 -19 -25 -12 5 7 1 9 -9 5 -14
-6 -16 16 -15 210 l1 217 24 9 c13 5 26 14 30 20 11 18 16 6 20 -45z"/>
<path d="M1166 2488 c3 -5 10 -6 15 -3 13 9 11 12 -6 12 -8 0 -12 -4 -9 -9z"/>
<path d="M1161 2414 c0 -11 3 -14 6 -6 3 7 2 16 -1 19 -3 4 -6 -2 -5 -13z"/>
<path d="M1280 2242 l0 -199 43 -29 c23 -15 48 -32 55 -37 9 -8 12 30 12 179
l0 189 -55 48 -55 48 0 -199z m44 132 c9 -3 16 -12 16 -19 0 -8 5 -17 12 -21
7 -5 8 -2 3 7 -5 8 -5 11 0 7 14 -13 7 -268 -7 -286 -8 -10 -9 -13 -1 -9 10 6
11 1 3 -33 0 -3 -5 3 -11 13 -6 9 -15 14 -21 11 -6 -4 -8 -3 -5 3 4 6 0 14 -9
17 -9 3 -12 11 -8 18 4 7 7 76 7 155 -1 79 0 143 2 143 2 0 10 -3 19 -6z"/>
<path d="M1500 2141 l0 -259 62 -46 c34 -25 56 -46 50 -46 -6 0 -94 47 -195
105 l-184 106 -64 -39 c-35 -21 -87 -52 -116 -67 -28 -16 -49 -33 -46 -39 3
-5 1 -6 -5 -2 -16 10 -132 -62 -131 -82 0 -10 3 -12 6 -4 2 6 10 9 15 6 7 -5
8 -2 3 6 -5 9 -1 11 16 6 13 -3 18 -3 11 0 -9 4 -5 11 13 20 35 18 40 18 24
-2 -10 -12 -13 -46 -11 -128 1 -61 -1 -117 -6 -124 -9 -13 -116 -21 -127 -10
-4 3 -6 228 -3 270 1 9 5 15 9 12 4 -2 11 0 14 6 4 6 1 9 -7 8 -10 -2 -13 47
-13 257 l0 260 54 3 c30 2 58 -1 63 -6 15 -15 19 -432 4 -432 -7 0 -7 -3 -1
-8 19 -14 15 -32 -10 -38 -14 -3 -30 -15 -36 -25 -5 -11 -14 -17 -19 -14 -5 3
-12 0 -17 -7 -8 -13 -9 -18 -12 -40 -1 -9 -4 -8 -11 2 -6 9 -10 10 -10 3 0
-17 14 -23 30 -12 8 5 11 9 6 9 -6 0 18 21 52 46 l62 46 0 249 0 249 -95 0
-95 0 0 -435 0 -435 95 0 95 0 0 143 0 142 128 73 c70 39 131 72 136 72 5 0
66 -33 137 -72 l128 -73 1 -142 0 -143 95 0 95 0 0 445 0 445 -95 0 -95 0 0
-259z m152 220 c11 -1 4 -535 -7 -543 -7 -5 -6 -8 1 -8 6 0 10 -48 11 -135 l1
-135 -63 0 c-48 0 -64 4 -69 16 -3 9 -6 61 -6 115 0 78 3 98 13 93 9 -6 9 -4
-1 8 -10 13 -10 17 3 22 9 3 14 2 11 -3 -3 -5 1 -14 9 -21 13 -11 14 -10 9 6
-6 16 -2 15 20 -6 15 -14 26 -19 24 -11 -2 7 3 16 11 19 9 3 11 0 6 -9 -5 -8
-4 -10 0 -6 18 16 12 36 -21 68 -26 25 -31 36 -23 46 9 9 8 13 0 13 -7 0 -9 5
-6 10 4 6 11 7 17 4 7 -5 8 -2 3 5 -5 9 -10 10 -18 2 -15 -15 -30 -14 -21 1 5
7 3 8 -6 3 -10 -6 -9 -11 4 -21 11 -8 13 -14 7 -19 -6 -3 -11 -1 -11 5 0 6 -5
8 -12 4 -6 -4 -8 -3 -4 4 3 6 2 13 -3 17 -6 3 -9 95 -8 228 1 250 -3 238 82
231 22 -1 43 -3 47 -3z m-512 -435 c0 -2 -8 -10 -17 -17 -16 -13 -17 -12 -4 4
13 16 21 21 21 13z m385 -124 c-3 -3 -11 0 -18 7 -9 10 -8 11 6 5 10 -3 15 -9
12 -12z"/>
<path d="M4493 2192 c-30 -3 -33 -9 -98 -155 -37 -84 -76 -170 -86 -191 -11
-22 -19 -40 -19 -41 0 0 17 1 38 3 l37 4 64 149 c36 82 66 148 67 146 4 -4
115 -260 121 -279 3 -10 19 -17 44 -20 21 -2 39 -3 39 -3 0 0 -39 88 -88 195
l-87 195 -32 -3z m36 -68 c12 -19 21 -44 21 -54 0 -10 6 -21 13 -23 9 -4 9 -6
-1 -6 -12 -1 -27 28 -23 44 3 9 -30 39 -45 41 -18 3 -28 -12 -50 -70 -10 -27
-20 -44 -22 -38 -2 6 4 24 13 41 8 17 15 33 15 36 -1 15 33 65 44 65 8 0 23
-16 35 -36z m56 -134 c2 -13 12 -31 21 -41 10 -11 14 -22 11 -25 -8 -9 -47 57
-47 80 0 25 9 16 15 -14z m-165 0 c0 -5 -8 -10 -17 -10 -15 0 -16 2 -3 10 19
12 20 12 20 0z m-49 -93 c-6 -8 -7 -18 -3 -22 4 -5 2 -5 -5 -1 -14 8 -6 36 9
36 7 0 6 -5 -1 -13z m257 -12 c-3 -3 -9 2 -12 12 -6 14 -5 15 5 6 7 -7 10 -15
7 -18z m-274 -40 c-4 -8 -8 -15 -10 -15 -2 0 -4 7 -4 15 0 8 4 15 10 15 5 0 7
-7 4 -15z m300 0 c3 -8 1 -15 -4 -15 -6 0 -10 7 -10 15 0 8 2 15 4 15 2 0 6
-7 10 -15z"/>
<path d="M2151 2168 c-5 -13 -41 -95 -81 -183 -39 -88 -74 -165 -76 -170 -3
-7 10 -9 33 -7 37 4 39 5 72 85 19 45 49 113 66 150 l30 68 64 -150 65 -149
38 -4 c24 -2 37 0 34 7 -2 5 -41 92 -86 193 l-83 182 -34 0 c-25 0 -36 -5 -42
-22z m72 -37 c21 -43 21 -45 -2 -24 -11 9 -17 21 -14 27 4 6 -3 3 -14 -7 -23
-20 -43 -6 -24 17 6 7 8 15 5 18 -3 3 3 5 13 5 10 -1 26 -17 36 -36z m-59 -42
c-3 -5 -10 -7 -15 -3 -5 3 -7 10 -3 15 3 5 10 7 15 3 5 -3 7 -10 3 -15z m105
-54 c21 -45 28 -75 14 -61 -5 4 -8 11 -8 14 -1 4 -6 17 -13 30 -7 12 -9 22 -5
22 4 0 2 5 -5 12 -7 7 -12 16 -12 20 0 17 9 6 29 -37z m-126 15 c-5 -19 -23
-39 -23 -25 0 9 20 45 24 45 2 0 2 -9 -1 -20z m-43 -90 c0 -5 -5 -10 -11 -10
-5 0 -7 5 -4 10 3 6 8 10 11 10 2 0 4 -4 4 -10z m210 -20 c6 -11 8 -20 6 -20
-3 0 -10 9 -16 20 -6 11 -8 20 -6 20 3 0 10 -9 16 -20z m-248 -65 c-9 -19 -21
-35 -26 -35 -4 0 -2 10 6 23 8 12 18 28 22 35 16 27 15 10 -2 -23z m273 15 c3
-5 1 -10 -4 -10 -6 0 -11 5 -11 10 0 6 2 10 4 10 3 0 8 -4 11 -10z m19 -52
c-9 -14 -23 2 -17 18 4 12 8 13 14 3 4 -7 5 -17 3 -21z"/>
<path d="M2725 2000 l0 -190 121 0 c109 0 124 2 155 23 61 41 61 131 0 158
l-27 12 28 28 c31 30 34 49 17 98 -17 49 -51 61 -181 61 l-113 0 0 -190z m75
157 c0 -5 -6 -7 -13 -4 -8 3 -14 -4 -15 -17 -7 -66 -6 -92 3 -98 6 -5 3 -8 -7
-8 -15 0 -17 9 -14 68 2 37 4 68 5 69 4 6 41 -3 41 -10z m134 5 c3 -5 -1 -9
-9 -9 -8 0 -12 4 -9 9 3 4 7 8 9 8 2 0 6 -4 9 -8z m65 -43 c8 -14 8 -19 0 -19
-6 0 -9 -7 -6 -15 4 -8 2 -17 -4 -20 -5 -4 -9 -3 -8 2 4 24 -3 53 -16 67 -8 8
-15 17 -15 20 0 11 37 -16 49 -35z m-49 -9 c14 -22 12 -41 -7 -62 -13 -14 -31
-18 -85 -18 l-68 0 0 53 0 52 75 -5 c52 -3 79 -10 85 -20z m-166 -96 c13 -5
14 -9 5 -20 -15 -19 -33 -18 -25 2 3 8 2 12 -4 9 -6 -3 -10 -1 -10 4 0 12 11
14 34 5z m171 -22 c-8 -8 -25 10 -19 20 4 6 9 5 15 -3 4 -7 6 -15 4 -17z m50
-30 c-3 -3 -11 0 -18 7 -9 10 -8 11 6 5 10 -3 15 -9 12 -12z m-241 -7 c3 -8 1
-15 -4 -15 -6 0 -10 7 -10 15 0 8 2 15 4 15 2 0 6 -7 10 -15z m198 -2 c20 -18
23 -40 8 -63 -7 -11 -34 -16 -95 -20 l-85 -5 0 53 0 52 77 0 c57 0 81 -4 95
-17z m46 -24 c-9 -6 -9 -9 -1 -9 15 0 8 -38 -12 -60 -8 -9 -22 -17 -30 -17
-12 0 -12 3 3 17 9 10 21 15 26 12 4 -2 6 14 3 36 -3 32 -1 39 10 35 12 -5 12
-7 1 -14z m-237 -49 c6 -16 15 -30 21 -30 5 0 7 -4 4 -9 -3 -5 -14 -7 -24 -5
-12 4 -17 15 -17 40 0 42 3 43 16 4z m66 -46 c-3 -3 -12 -4 -19 -1 -8 3 -5 6
6 6 11 1 17 -2 13 -5z"/>
<path d="M3380 2001 l0 -189 35 -4 35 -4 0 193 0 193 -35 0 -35 0 0 -189z m50
109 c0 -16 -4 -30 -10 -30 -5 0 -10 14 -10 30 0 17 5 30 10 30 6 0 10 -13 10
-30z m-1 -77 c0 -34 -1 -36 -11 -16 -6 12 -8 29 -5 37 11 27 17 18 16 -21z
m-2 -90 c-3 -10 -5 -2 -5 17 0 19 2 27 5 18 2 -10 2 -26 0 -35z m3 -53 c0 -16
-4 -30 -10 -30 -11 0 -14 43 -3 53 11 12 13 8 13 -23z"/>
<path d="M3780 2160 l0 -30 60 0 60 0 0 -160 0 -160 35 0 36 0 -3 160 -3 160
63 0 62 0 0 30 0 30 -155 0 -155 0 0 -30z m136 -6 c-5 -13 -3 -14 6 -7 20 15
57 22 64 12 3 -5 2 -9 -3 -8 -22 4 -43 -2 -38 -11 3 -5 0 -10 -7 -10 -9 0 -9
-3 2 -10 8 -5 10 -10 4 -10 -14 0 -46 35 -39 42 3 3 -6 4 -20 3 -14 -2 -23 1
-19 6 3 5 17 9 31 9 19 0 24 -4 19 -16z m24 -74 c0 -11 -2 -20 -4 -20 -2 0 -6
9 -9 20 -3 11 -1 20 4 20 5 0 9 -9 9 -20z m-3 -87 c-3 -10 -5 -4 -5 12 0 17 2
24 5 18 2 -7 2 -21 0 -30z m3 -130 c0 -22 -2 -25 -10 -13 -13 20 -13 40 0 40
6 0 10 -12 10 -27z"/>
<path d="M4955 2001 l0 -189 33 -4 32 -4 0 68 0 68 43 0 c42 0 45 -2 89 -64
42 -58 50 -64 87 -68 23 -2 41 -2 41 0 0 2 -13 21 -28 41 -16 20 -38 51 -51
68 l-22 33 24 9 c88 34 89 180 2 217 -23 9 -72 14 -142 14 l-108 0 0 -189z
m55 138 c-6 -10 -16 -19 -23 -19 -7 0 -6 4 3 10 10 6 11 10 3 10 -21 0 -15 16
7 17 17 2 18 -1 10 -18z m210 -15 c0 -8 4 -13 9 -9 11 6 21 -21 17 -50 -3 -27
-27 -75 -38 -75 -4 0 -21 -14 -36 -31 l-27 -31 -20 23 c-11 12 -14 19 -7 15 6
-4 12 -3 12 3 0 5 13 12 29 16 58 13 98 88 60 115 -9 7 -15 19 -12 27 3 8 2
13 -3 12 -21 -4 -35 2 -29 11 9 14 45 -7 45 -26z m-42 -10 c15 -10 22 -25 22
-49 0 -49 -28 -65 -112 -65 l-68 0 0 65 0 65 68 0 c45 0 75 -5 90 -16z m-179
-36 c-1 -31 -1 -31 -8 -8 -5 14 -6 28 -4 33 9 15 13 6 12 -25z m37 -97 c20 -5
43 -7 52 -4 9 3 13 2 9 -3 -4 -4 -22 -9 -40 -10 -54 -3 -57 -4 -56 -11 1 -5 0
-35 -1 -68 l-3 -60 -6 45 c-9 64 -3 206 6 148 3 -21 12 -30 39 -37z m183 -136
c0 -5 -4 -2 -10 8 -6 9 -14 15 -19 12 -5 -3 -12 6 -16 20 -3 14 -10 25 -16 25
-5 0 -6 5 -3 11 7 10 64 -57 64 -76z"/>
<path d="M5136 1961 c-4 -5 -2 -12 3 -15 5 -4 12 -2 15 3 4 5 2 12 -3 15 -5 4
-12 2 -15 -3z"/>
<path d="M4140 2140 c-9 -6 -10 -10 -3 -10 6 0 15 5 18 10 8 12 4 12 -15 0z"/>
<path d="M1100 1965 c-63 -40 -116 -78 -118 -84 -4 -13 108 51 153 87 6 4 31
18 58 30 44 21 63 43 35 41 -7 0 -65 -34 -128 -74z"/>
<path d="M2184 1935 c-4 -11 -17 -43 -30 -72 l-22 -51 64 -4 c35 -2 64 -2 64
-2 0 1 -15 35 -34 75 -28 60 -36 70 -42 54z m29 -85 c4 -15 0 -20 -13 -20 -11
0 -22 5 -26 12 -4 6 -3 8 4 4 6 -3 13 -2 17 4 3 5 1 10 -5 10 -6 0 -8 5 -5 10
9 14 21 5 28 -20z"/>
<path d="M4462 1879 c-18 -40 -31 -73 -30 -73 2 -1 30 1 64 4 l60 5 -31 68
-32 68 -31 -72z m48 -31 c0 -20 -26 -24 -33 -5 -2 6 1 20 7 29 12 19 26 6 26
-24z"/>
<path d="M906 1901 c-3 -5 1 -11 9 -14 9 -4 12 -1 8 9 -6 16 -10 17 -17 5z"/>
<path d="M4420 1770 c-9 -6 -10 -10 -3 -10 6 0 15 5 18 10 8 12 4 12 -15 0z"/>
<path d="M2259 1663 c-13 -16 -12 -17 4 -4 9 7 17 15 17 17 0 8 -8 3 -21 -13z"/>
<path d="M3833 1653 c-8 -3 -13 -24 -13 -59 0 -41 -4 -56 -16 -61 -32 -12 -49
11 -49 66 0 34 -4 51 -12 51 -20 0 -17 -105 3 -124 24 -25 71 -20 89 8 20 30
17 125 -2 119z"/>
<path d="M2011 1631 c-27 -27 -27 -75 -1 -101 29 -29 100 -25 100 6 0 16 -16
19 -25 4 -9 -15 -42 -12 -59 6 -38 38 -4 90 52 79 26 -5 33 -3 30 7 -8 23 -74
22 -97 -1z"/>
<path d="M2297 1633 c-30 -34 -31 -70 -3 -97 32 -33 70 -33 101 -1 30 30 31
54 4 89 -24 31 -77 36 -102 9z m81 -15 c19 -19 15 -66 -7 -78 -27 -14 -37 -13
-55 6 -32 31 -14 84 29 84 12 0 26 -5 33 -12z"/>
<path d="M2590 1580 c0 -56 3 -70 15 -70 12 0 14 9 9 50 -3 28 -4 50 -1 50 3
0 21 -22 41 -50 20 -27 40 -50 46 -50 6 0 10 30 10 70 0 51 -4 70 -13 70 -9 0
-12 -11 -9 -34 8 -68 -1 -72 -38 -17 -48 71 -60 67 -60 -19z"/>
<path d="M2903 1643 c-7 -2 -13 -16 -13 -29 0 -19 8 -29 34 -39 19 -8 37 -19
41 -25 10 -16 -24 -24 -50 -12 -15 7 -27 8 -30 2 -9 -15 40 -33 70 -26 52 13
44 64 -13 78 -47 12 -44 43 3 35 19 -3 37 -2 40 3 10 16 -51 26 -82 13z"/>
<path d="M3150 1640 c0 -5 11 -10 25 -10 24 0 25 -3 25 -60 0 -33 4 -60 10
-60 6 0 10 27 10 60 0 57 1 60 25 60 14 0 25 5 25 10 0 6 -27 10 -60 10 -33 0
-60 -4 -60 -10z"/>
<path d="M3440 1580 c0 -52 3 -70 14 -70 9 0 12 8 8 25 -3 20 0 25 15 25 11 0
26 -11 33 -25 7 -14 22 -25 33 -25 19 0 19 1 -4 26 -22 23 -23 26 -6 35 20 11
23 49 5 67 -7 7 -31 12 -55 12 l-43 0 0 -70z m85 25 c0 -15 -8 -21 -32 -23
-30 -3 -33 -1 -33 23 0 24 3 26 33 23 24 -2 32 -8 32 -23z"/>
<path d="M4041 1625 c-47 -61 21 -141 90 -104 11 5 17 14 14 20 -4 5 -14 5
-26 -2 -28 -15 -58 -2 -65 28 -11 40 7 58 55 56 41 -2 55 10 25 21 -35 14 -73
6 -93 -19z"/>
<path d="M4320 1640 c0 -5 9 -10 20 -10 18 0 20 -7 20 -60 0 -47 3 -60 15 -60
12 0 15 13 15 60 0 53 2 60 20 60 11 0 20 5 20 10 0 6 -25 10 -55 10 -30 0
-55 -4 -55 -10z"/>
<path d="M4620 1580 c0 -56 3 -70 15 -70 12 0 15 14 15 70 0 56 -3 70 -15 70
-12 0 -15 -14 -15 -70z"/>
<path d="M4862 1634 c-29 -20 -30 -76 -2 -104 43 -43 120 -10 120 52 0 57 -68
87 -118 52z m76 -16 c17 -17 15 -63 -3 -78 -22 -18 -64 -4 -71 24 -12 50 40
88 74 54z"/>
<path d="M5150 1580 c0 -58 3 -70 16 -70 14 0 16 9 12 50 -3 28 -4 50 -2 50 1
0 19 -22 39 -50 20 -27 41 -50 46 -50 5 0 9 32 9 70 0 78 -17 96 -22 23 l-3
-48 -33 48 c-48 68 -62 63 -62 -23z"/>
<path d="M2065 1580 c-3 -6 1 -7 9 -4 18 7 21 14 7 14 -6 0 -13 -4 -16 -10z"/>
<path d="M1450 1466 c0 -2 8 -10 18 -17 15 -13 16 -12 3 4 -13 16 -21 21 -21
13z"/>
</g>
</svg>
